# xmcd
#
# Track frame offsets:
#	150
#	16537
#	26585
#	46924
#	63728
#	95968
#	119646
#	137815
#	144855
#	165074
#	181254
#	194945
#	223778
#	246017
#	261156
#	274527
#	288545
#	308867
#
# Disc length: 4365 seconds
#
# Revision: 0
# Processed by: cddbd v1.5.2PL0 Copyright (c) Steve Scherf et al.
# Submitted via: audiograbber 1.83.01
#
DISCID=0e110b12
DTITLE=Jerry Jeff Walker - From Vinyl Records
DYEAR=1900
DGENRE=Country
TTITLE0=Salvation Army Band
TTITLE1=Will There Be Any
TTITLE2=She Left Me Holdin'
TTITLE3=I Like To Sleep in The Morning
TTITLE4=My Old Man
TTITLE5=Rock Me Roll Me
TTITLE6=The First Showboat
TTITLE7=The First Showboat - Part 2
TTITLE8=Well Of The Blues
TTITLE9=Wingin' It Home To Texas
TTITLE10=O.D Corral
TTITLE11=Contrary To Ordinary
TTITLE12=We Were Kinda Crazy Then
TTITLE13=Deeper Than Love
TTITLE14=I Spent All My Money Lovin' You
TTITLE15=Carry Me Away
TTITLE16=I'll Be Your San Antone Rose
TTITLE17=Old Nashville Cowboy
EXTD=
EXTT0=
EXTT1=
EXTT2=
EXTT3=
EXTT4=
EXTT5=
EXTT6=
EXTT7=
EXTT8=
EXTT9=
EXTT10=
EXTT11=
EXTT12=
EXTT13=
EXTT14=
EXTT15=
EXTT16=
EXTT17=
PLAYORDER=
